HIERARCHY
ROOT mixamorig:Hips
{
	OFFSET 0.000000 77.627144 7.190781
	CHANNELS 6 Xposition Yposition Zposition Zrotation Yrotation Xrotation 
	JOINT mixamorig:Spine
	{
		OFFSET 0.000000 14.685707 -1.734714
		CHANNELS 3 Zrotation Yrotation Xrotation
		JOINT mixamorig:Spine1
		{
			OFFSET 0.000000 17.133331 -2.023833
			CHANNELS 3 Zrotation Yrotation Xrotation
			JOINT mixamorig:Spine2
			{
				OFFSET 0.000000 19.580948 -2.312953
				CHANNELS 3 Zrotation Yrotation Xrotation
				JOINT mixamorig:Neck
				{
					OFFSET 0.000000 22.028564 -2.602070
					CHANNELS 3 Zrotation Yrotation Xrotation
					JOINT mixamorig:Head
					{
						OFFSET 0.000000 7.772293 1.167654
						CHANNELS 3 Zrotation Yrotation Xrotation
						JOINT mixamorig:HeadTop_End
						{
							OFFSET 0.000000 26.518158 3.983897
							CHANNELS 3 Zrotation Yrotation Xrotation
							End Site
							{
								OFFSET 0.000000 0.000000 0.000000
							}
						}
					}
				}
				JOINT mixamorig:LeftShoulder
				{
					OFFSET 11.646637 18.513367 -2.583829
					CHANNELS 3 Zrotation Yrotation Xrotation
					JOINT mixamorig:LeftArm
					{
						OFFSET 23.494797 -6.787735 0.036483
						CHANNELS 3 Zrotation Yrotation Xrotation
						JOINT mixamorig:LeftForeArm
						{
							OFFSET 22.628841 -2.236465 0.895561
							CHANNELS 3 Zrotation Yrotation Xrotation
							JOINT mixamorig:LeftHand
							{
								OFFSET 32.235813 0.214081 0.341628
								CHANNELS 3 Zrotation Yrotation Xrotation
								JOINT mixamorig:LeftHandThumb1
								{
									OFFSET 4.043732 -2.301453 4.675424
									CHANNELS 3 Zrotation Yrotation Xrotation
									JOINT mixamorig:LeftHandThumb2
									{
										OFFSET 3.235001 -1.841141 3.740334
										CHANNELS 3 Zrotation Yrotation Xrotation
										JOINT mixamorig:LeftHandThumb3
										{
											OFFSET 4.136284 -1.355438 2.884997
											CHANNELS 3 Zrotation Yrotation Xrotation
											JOINT mixamorig:LeftHandThumb4
											{
												OFFSET 3.443222 -1.440781 1.895251
												CHANNELS 3 Zrotation Yrotation Xrotation
												End Site
												{
													OFFSET 0.000000 0.000000 0.000000
												}
											}
										}
									}
								}
								JOINT mixamorig:LeftHandIndex1
								{
									OFFSET 12.534279 0.552322 5.370454
									CHANNELS 3 Zrotation Yrotation Xrotation
									JOINT mixamorig:LeftHandIndex2
									{
										OFFSET 4.462021 -0.042068 -0.222766
										CHANNELS 3 Zrotation Yrotation Xrotation
										JOINT mixamorig:LeftHandIndex3
										{
											OFFSET 4.426414 -0.140015 -0.221126
											CHANNELS 3 Zrotation Yrotation Xrotation
											JOINT mixamorig:LeftHandIndex4
											{
												OFFSET 3.584976 -0.033737 -0.180877
												CHANNELS 3 Zrotation Yrotation Xrotation
												End Site
												{
													OFFSET 0.000000 0.000000 0.000000
												}
											}
										}
									}
								}
								JOINT mixamorig:LeftHandMiddle1
								{
									OFFSET 12.067444 0.830978 1.411757
									CHANNELS 3 Zrotation Yrotation Xrotation
									JOINT mixamorig:LeftHandMiddle2
									{
										OFFSET 5.488625 0.110443 -0.140360
										CHANNELS 3 Zrotation Yrotation Xrotation
										JOINT mixamorig:LeftHandMiddle3
										{
											OFFSET 5.193268 -0.285706 -0.132956
											CHANNELS 3 Zrotation Yrotation Xrotation
											JOINT mixamorig:LeftHandMiddle4
											{
												OFFSET 4.443779 -0.316895 -0.113542
												CHANNELS 3 Zrotation Yrotation Xrotation
												End Site
												{
													OFFSET 0.000000 0.000000 0.000000
												}
											}
										}
									}
								}
								JOINT mixamorig:LeftHandRing1
								{
									OFFSET 12.202324 0.602158 -2.428782
									CHANNELS 3 Zrotation Yrotation Xrotation
									JOINT mixamorig:LeftHandRing2
									{
										OFFSET 4.681709 0.293594 -0.070412
										CHANNELS 3 Zrotation Yrotation Xrotation
										JOINT mixamorig:LeftHandRing3
										{
											OFFSET 4.517784 0.001785 -0.067170
											CHANNELS 3 Zrotation Yrotation Xrotation
											JOINT mixamorig:LeftHandRing4
											{
												OFFSET 3.536186 -0.473984 -0.050865
												CHANNELS 3 Zrotation Yrotation Xrotation
												End Site
												{
													OFFSET 0.000000 0.000000 0.000000
												}
											}
										}
									}
								}
								JOINT mixamorig:LeftHandPinky1
								{
									OFFSET 11.261032 -0.021225 -5.740205
									CHANNELS 3 Zrotation Yrotation Xrotation
									JOINT mixamorig:LeftHandPinky2
									{
										OFFSET 4.446136 0.226913 -0.056313
										CHANNELS 3 Zrotation Yrotation Xrotation
										JOINT mixamorig:LeftHandPinky3
										{
											OFFSET 3.536148 0.035980 -0.044635
											CHANNELS 3 Zrotation Yrotation Xrotation
											JOINT mixamorig:LeftHandPinky4
											{
												OFFSET 2.822449 0.069366 -0.035670
												CHANNELS 3 Zrotation Yrotation Xrotation
												End Site
												{
													OFFSET 0.000000 0.000000 0.000000
												}
											}
										}
									}
								}
							}
						}
					}
				}
				JOINT mixamorig:RightShoulder
				{
					OFFSET -11.646637 18.513367 -2.620312
					CHANNELS 3 Zrotation Yrotation Xrotation
					JOINT mixamorig:RightArm
					{
						OFFSET -23.494804 -6.787735 -0.036485
						CHANNELS 3 Zrotation Yrotation Xrotation
						JOINT mixamorig:RightForeArm
						{
							OFFSET -22.628826 -2.236481 0.960591
							CHANNELS 3 Zrotation Yrotation Xrotation
							JOINT mixamorig:RightHand
							{
								OFFSET -32.235806 0.214096 0.317908
								CHANNELS 3 Zrotation Yrotation Xrotation
								JOINT mixamorig:RightHandThumb1
								{
									OFFSET -4.056908 -2.304855 4.721249
									CHANNELS 3 Zrotation Yrotation Xrotation
									JOINT mixamorig:RightHandThumb2
									{
										OFFSET -3.245529 -1.843887 3.777003
										CHANNELS 3 Zrotation Yrotation Xrotation
										JOINT mixamorig:RightHandThumb3
										{
											OFFSET -4.153908 -1.359879 2.907515
											CHANNELS 3 Zrotation Yrotation Xrotation
											JOINT mixamorig:RightHandThumb4
											{
												OFFSET -3.491310 -1.375549 1.529044
												CHANNELS 3 Zrotation Yrotation Xrotation
												End Site
												{
													OFFSET 0.000000 0.000000 0.000000
												}
											}
										}
									}
								}
								JOINT mixamorig:RightHandIndex1
								{
									OFFSET -12.331047 0.757294 5.317495
									CHANNELS 3 Zrotation Yrotation Xrotation
									JOINT mixamorig:RightHandIndex2
									{
										OFFSET -4.758568 -0.224289 -0.035605
										CHANNELS 3 Zrotation Yrotation Xrotation
										JOINT mixamorig:RightHandIndex3
										{
											OFFSET -4.415932 -0.181503 -0.033052
											CHANNELS 3 Zrotation Yrotation Xrotation
											JOINT mixamorig:RightHandIndex4
											{
												OFFSET -3.678474 0.414856 -0.027373
												CHANNELS 3 Zrotation Yrotation Xrotation
												End Site
												{
													OFFSET 0.000000 0.000000 0.000000
												}
											}
										}
									}
								}
								JOINT mixamorig:RightHandMiddle1
								{
									OFFSET -12.051239 0.663742 1.548264
									CHANNELS 3 Zrotation Yrotation Xrotation
									JOINT mixamorig:RightHandMiddle2
									{
										OFFSET -5.374817 0.301971 -0.166537
										CHANNELS 3 Zrotation Yrotation Xrotation
										JOINT mixamorig:RightHandMiddle3
										{
											OFFSET -5.310471 -0.301758 -0.164593
											CHANNELS 3 Zrotation Yrotation Xrotation
											JOINT mixamorig:RightHandMiddle4
											{
												OFFSET -4.485832 -0.342514 -0.139207
												CHANNELS 3 Zrotation Yrotation Xrotation
												End Site
												{
													OFFSET 0.000000 0.000000 0.000000
												}
											}
										}
									}
								}
								JOINT mixamorig:RightHandRing1
								{
									OFFSET -12.195183 0.742325 -2.381488
									CHANNELS 3 Zrotation Yrotation Xrotation
									JOINT mixamorig:RightHandRing2
									{
										OFFSET -4.583191 0.034424 -0.012763
										CHANNELS 3 Zrotation Yrotation Xrotation
										JOINT mixamorig:RightHandRing3
										{
											OFFSET -4.612793 0.026199 -0.012632
											CHANNELS 3 Zrotation Yrotation Xrotation
											JOINT mixamorig:RightHandRing4
											{
												OFFSET -3.314957 -0.541855 -0.006643
												CHANNELS 3 Zrotation Yrotation Xrotation
												End Site
												{
													OFFSET 0.000000 0.000000 0.000000
												}
											}
										}
									}
								}
								JOINT mixamorig:RightHandPinky1
								{
									OFFSET -11.332825 -0.054398 -5.574547
									CHANNELS 3 Zrotation Yrotation Xrotation
									JOINT mixamorig:RightHandPinky2
									{
										OFFSET -4.462639 0.300003 -0.206312
										CHANNELS 3 Zrotation Yrotation Xrotation
										JOINT mixamorig:RightHandPinky3
										{
											OFFSET -3.493774 0.049591 -0.161451
											CHANNELS 3 Zrotation Yrotation Xrotation
											JOINT mixamorig:RightHandPinky4
											{
												OFFSET -2.793701 0.056946 -0.129098
												CHANNELS 3 Zrotation Yrotation Xrotation
												End Site
												{
													OFFSET 0.000000 0.000000 0.000000
												}
											}
										}
									}
								}
							}
						}
					}
				}
			}
		}
	}
	JOINT mixamorig:LeftUpLeg
	{
		OFFSET 13.580879 -8.149223 -1.796077
		CHANNELS 3 Zrotation Yrotation Xrotation
		JOINT mixamorig:LeftLeg
		{
			OFFSET 3.676140 -35.802425 -2.676071
			CHANNELS 3 Zrotation Yrotation Xrotation
			JOINT mixamorig:LeftFoot
			{
				OFFSET -0.369089 -26.709160 -2.057140
				CHANNELS 3 Zrotation Yrotation Xrotation
				JOINT mixamorig:LeftToeBase
				{
					OFFSET -1.192477 -6.581660 13.403662
					CHANNELS 3 Zrotation Yrotation Xrotation
					JOINT mixamorig:LeftToe_End
					{
						OFFSET -0.351336 -0.163913 5.937977
						CHANNELS 3 Zrotation Yrotation Xrotation
						End Site
						{
							OFFSET 0.000000 0.000000 0.000000
						}
					}
				}
			}
		}
	}
	JOINT mixamorig:RightUpLeg
	{
		OFFSET -13.580879 -8.149223 -2.255285
		CHANNELS 3 Zrotation Yrotation Xrotation
		JOINT mixamorig:RightLeg
		{
			OFFSET -3.676140 -35.802425 -2.316821
			CHANNELS 3 Zrotation Yrotation Xrotation
			JOINT mixamorig:RightFoot
			{
				OFFSET 0.369059 -26.709040 -2.090143
				CHANNELS 3 Zrotation Yrotation Xrotation
				JOINT mixamorig:RightToeBase
				{
					OFFSET 1.192393 -6.582436 13.372205
					CHANNELS 3 Zrotation Yrotation Xrotation
					JOINT mixamorig:RightToe_End
					{
						OFFSET 0.351307 -0.164255 5.913618
						CHANNELS 3 Zrotation Yrotation Xrotation
						End Site
						{
							OFFSET 0.000000 0.000000 0.000000
						}
					}
				}
			}
		}
	}
}
MOTION
Frames: 5
Frame Time: 0.016667
0.863346 77.228333 1.834730 -2.755859 -5.429532 -3.486584 2.146002 1.403480 3.369695 1.559264 0.297913 1.154551 1.557646 0.325581 1.132959 0.454106 -0.122248 5.621862 -0.264334 1.351713 -7.555273 0.000000 0.000000 0.000000 -12.761731 -16.831479 4.773314 -65.346278 -2.895793 19.851998 -6.025624 -3.099808 0.171255 -10.820909 -1.355977 -30.114387 6.480129 13.094725 3.256428 13.287564 12.914096 11.069568 11.305320 -0.387451 -18.632414 0.000002 0.000003 0.000000 -3.165725 -10.781608 0.806675 -16.151695 0.874162 -0.915083 -9.329041 0.395125 -0.492619 0.000001 0.000001 -0.000001 -13.108153 -6.051859 1.120998 -13.162731 0.928340 -0.428231 -17.546051 0.959690 -0.534536 -0.000002 -0.000001 0.000000 -21.005392 -4.511256 1.684490 -17.417466 1.070295 -0.462434 -10.274666 0.971048 -0.172449 0.000002 0.000001 0.000000 -26.306933 -2.445842 1.711165 -15.128626 0.912990 -0.343018 -17.389040 0.854940 -0.367864 -0.000001 0.000000 0.000000 15.091826 14.551888 5.061576 56.941783 2.955933 30.005637 6.036349 8.542509 0.214851 11.306429 -3.665704 -16.976822 -5.157087 -10.369779 2.171377 -13.055630 -17.248862 12.614096 -15.390766 3.476839 -21.475203 0.000005 0.000004 -0.000002 0.943766 9.363392 0.281416 17.805484 -0.471369 -0.186093 16.869566 -0.210636 -0.166463 0.000002 -0.000001 -0.000001 15.318165 7.528603 1.758625 11.019957 -0.317409 -0.372993 17.379933 -0.286420 -0.562119 -0.000004 -0.000001 -0.000002 17.978842 5.287654 1.614437 20.900989 -0.503839 -0.154977 8.338767 -0.485537 -0.017162 -0.000001 -0.000001 -0.000002 27.527280 5.826860 2.560662 14.443907 -0.233179 -0.713730 16.918308 -0.185906 -0.820260 0.000002 0.000001 0.000000 5.074929 15.449272 -12.776744 4.848808 1.203449 20.801873 -5.573807 0.673989 -3.577250 -0.000007 0.000007 -4.933171 0.000000 0.000000 0.000001 4.888197 -10.375324 2.283007 -3.838084 -9.700495 3.374560 0.917464 -1.489867 -2.181453 0.000006 0.000021 -7.273502 0.000001 0.000002 0.000001 
0.781255 77.192169 1.888908 -2.485011 -5.268563 -3.457762 1.996643 1.415821 3.350579 1.499787 0.296780 1.150743 1.498296 0.323807 1.129473 0.443173 -0.098595 5.511978 -0.268723 1.406644 -7.608381 0.000000 0.000000 0.000000 -12.775166 -16.826197 4.774670 -65.036872 -2.762047 19.434403 -6.025896 -3.289343 0.172520 -10.779334 -1.300109 -29.185946 6.533386 12.952837 3.252977 12.793277 12.468523 10.852060 11.537551 -0.397138 -18.709618 -0.000005 0.000001 -0.000000 -2.837711 -10.798832 0.824672 -16.685905 0.896115 -0.948993 -10.378121 0.445776 -0.552668 -0.000002 0.000000 0.000000 -13.519144 -6.014507 1.143622 -14.068173 0.971887 -0.463627 -17.656955 0.964829 -0.538802 -0.000004 -0.000001 -0.000001 -22.017887 -4.470392 1.731860 -17.951981 1.094551 -0.480497 -10.358013 0.975214 -0.174471 -0.000001 0.000001 -0.000001 -27.192911 -2.395969 1.623304 -16.048265 0.957410 -0.370160 -18.374957 0.902105 -0.396745 -0.000001 0.000000 0.000000 15.046870 14.530423 5.051258 56.754101 2.852832 29.542899 6.036232 8.494960 0.214523 11.224965 -3.757528 -16.154258 -5.157099 -10.369719 2.171344 -13.055449 -17.248643 12.613980 -15.390832 3.476814 -21.475203 0.000007 0.000004 0.000006 1.588963 9.337143 0.377015 18.884484 -0.498420 -0.202046 17.981436 -0.238747 -0.182632 0.000001 0.000001 -0.000002 15.907181 7.498160 1.803254 12.071239 -0.331430 -0.410312 18.561214 -0.298213 -0.602995 0.000000 0.000002 0.000000 18.523451 5.254419 1.654397 21.980098 -0.527699 -0.167814 9.522325 -0.514161 -0.025114 -0.000001 0.000002 -0.000000 28.080610 5.790154 2.604243 15.497988 -0.238977 -0.767042 18.037794 -0.189928 -0.876060 -0.000003 -0.000001 0.000000 4.816181 15.449341 -12.704498 4.812103 1.159609 20.480419 -5.577055 0.610444 -3.389345 -0.000006 -0.000009 -4.913019 -0.000001 -0.000001 0.000000 4.676455 -10.213565 0.829277 -4.442409 -9.756665 6.908515 1.264369 -1.566739 -4.164382 0.000011 0.000006 -7.364128 0.000000 0.000000 0.000001 
0.691241 77.135147 1.943685 -2.183336 -5.099505 -3.444494 1.826051 1.426564 3.337401 1.437884 0.294698 1.147061 1.436521 0.321003 1.126134 0.429263 -0.068960 5.443224 -0.286744 1.482683 -7.701787 0.000000 0.000000 0.000000 -12.779674 -16.818728 4.774959 -64.698652 -2.554251 19.006781 -6.026481 -3.638499 0.174853 -10.783761 -1.155065 -28.207259 6.584569 12.816575 3.249411 12.302692 11.968602 10.633049 11.773363 -0.450636 -18.797697 -0.000001 0.000004 -0.000000 -2.412836 -10.828500 0.830043 -17.159535 0.915296 -0.979300 -11.371462 0.492722 -0.610332 0.000000 0.000000 -0.000001 -13.870143 -5.981470 1.162726 -14.903215 1.011549 -0.496874 -17.736704 0.968524 -0.541870 0.000001 -0.000001 -0.000002 -22.997166 -4.430269 1.776250 -18.425884 1.115929 -0.496681 -10.410895 0.977851 -0.175761 0.000000 0.000000 0.000000 -28.036757 -2.345561 1.535079 -16.986692 1.002289 -0.398574 -19.380594 0.949693 -0.427035 -0.000002 -0.000001 0.000000 15.013982 14.511764 5.043255 56.547044 2.738834 29.090869 6.036166 8.472273 0.214348 11.102120 -3.822750 -15.314896 -5.157088 -10.369779 2.171371 -13.055684 -17.249066 12.614168 -15.390760 3.476774 -21.475193 0.000002 -0.000001 0.000002 2.322405 9.307414 0.479833 20.016307 -0.526471 -0.219320 19.101787 -0.266728 -0.199479 -0.000000 -0.000001 0.000002 16.512194 7.466894 1.848857 13.137635 -0.344949 -0.448427 19.846384 -0.310080 -0.647726 0.000004 0.000003 -0.000001 19.025485 5.218664 1.690971 23.112027 -0.552462 -0.181750 10.812623 -0.545178 -0.034452 0.000000 0.000000 0.000001 28.603224 5.752782 2.648246 16.571456 -0.243860 -0.821431 19.176958 -0.192912 -0.932912 0.000000 0.000000 0.000000 4.535576 15.468378 -12.677063 4.778834 1.109251 20.293297 -5.585651 0.511097 -3.274376 -0.000007 0.000000 -4.919088 0.000000 0.000000 0.000000 4.437119 -10.093216 -0.296050 -4.924923 -9.696809 9.715043 1.604337 -1.766750 -5.778583 0.000004 0.000016 -7.429976 0.000001 0.000001 0.000002 
0.598407 77.076698 2.000449 -1.874021 -4.926039 -3.439260 1.654048 1.434465 3.327098 1.374580 0.292053 1.143096 1.373345 0.317594 1.122538 0.412740 -0.035144 5.404214 -0.313181 1.574094 -7.821924 0.000000 0.000000 0.000000 -12.780099 -16.810003 4.774670 -64.364657 -2.357859 18.548402 -6.026996 -3.961528 0.177054 -10.805322 -1.020897 -27.172792 6.634330 12.684146 3.245694 11.815965 11.430970 10.416547 12.011607 -0.533603 -18.893672 -0.000003 -0.000001 -0.000001 -1.922390 -10.866408 0.826708 -17.592224 0.932607 -1.007070 -12.327118 0.536918 -0.666611 0.000002 0.000000 0.000000 -14.180603 -5.951357 1.179499 -15.690693 1.048494 -0.528755 -17.795387 0.971248 -0.544126 0.000003 0.000000 0.000000 -23.953974 -4.390475 1.818311 -18.858789 1.135339 -0.511624 -10.443188 0.979468 -0.176556 0.000000 0.000000 0.000000 -28.852142 -2.294696 1.446398 -17.937857 1.047287 -0.428122 -20.399587 0.997360 -0.458569 0.000000 0.000000 0.000000 14.991818 14.499865 5.037965 56.324343 2.614700 28.644080 6.036147 8.465844 0.214300 10.945841 -3.876374 -14.453057 -5.157040 -10.369879 2.171387 -13.056079 -17.249642 12.614397 -15.390663 3.476714 -21.475197 0.000002 0.000004 0.000000 3.112549 9.274993 0.587045 21.182111 -0.555013 -0.237685 20.227476 -0.294506 -0.216959 0.000001 0.000001 -0.000003 17.127373 7.434927 1.894889 14.213652 -0.357862 -0.487117 21.198582 -0.321464 -0.695079 -0.000002 0.000000 0.000000 19.499988 5.181240 1.725289 24.277939 -0.577684 -0.196619 12.171758 -0.577606 -0.045049 -0.000001 0.000001 -0.000000 29.105796 5.715069 2.690405 17.657398 -0.247764 -0.876547 20.328872 -0.194789 -0.990440 0.000000 0.000000 0.000000 4.252159 15.496338 -12.636322 4.746602 1.064091 20.098901 -5.594850 0.394526 -3.154758 -0.000006 0.000000 -4.939195 0.000000 -0.000001 0.000000 4.192533 -10.002212 -1.196936 -5.319217 -9.603376 12.024578 1.911434 -2.007159 -7.157178 0.000009 0.000005 -7.479459 0.000000 0.000002 0.000002 
0.501875 77.015091 2.059943 -1.552745 -4.749639 -3.442835 1.477270 1.439606 3.319492 1.309812 0.288849 1.138336 1.308704 0.313594 1.118168 0.392991 0.003558 5.402022 -0.348793 1.684281 -7.972314 0.000000 0.000000 0.000000 -12.778591 -16.801247 4.774066 -64.037513 -2.180214 18.035238 -6.027459 -4.237398 0.178901 -10.827279 -0.913906 -26.065233 6.682558 12.556007 3.241874 11.333525 10.850958 10.202498 12.252634 -0.649806 -18.998944 -0.000003 0.000000 0.000003 -1.357822 -10.913528 0.813435 -17.978595 0.947888 -1.031986 -13.240146 0.578276 -0.721030 -0.000000 0.000001 -0.000001 -14.445216 -5.924599 1.193674 -16.424418 1.082508 -0.558939 -17.830222 0.972863 -0.545468 -0.000002 -0.000001 0.000001 -24.885396 -4.351209 1.857978 -19.245326 1.152566 -0.525100 -10.452220 0.979919 -0.176774 0.000000 0.000000 0.000000 -29.635297 -2.243438 1.357416 -18.903392 1.092445 -0.458881 -21.433699 1.045168 -0.491436 0.000003 0.000000 0.000000 14.983219 14.500375 5.036676 56.080141 2.473528 28.202776 6.036211 8.485696 0.214451 10.747309 -3.929358 -13.555002 -5.156995 -10.369958 2.171364 -13.056420 -17.250132 12.614606 -15.390586 3.476753 -21.475185 0.000007 0.000003 0.000000 3.963512 9.239567 0.698893 22.384379 -0.584032 -0.257243 21.358774 -0.322066 -0.235081 -0.000000 -0.000003 0.000001 17.753302 7.402224 1.941365 15.299860 -0.370159 -0.526428 22.622835 -0.332257 -0.745206 0.000001 0.000004 0.000001 19.944738 5.142123 1.757199 25.480291 -0.603373 -0.212474 13.604900 -0.611513 -0.057048 0.000002 0.000001 -0.000001 29.586612 5.677185 2.728794 18.756811 -0.250648 -0.932411 21.494453 -0.195498 -1.048676 0.000001 0.000001 0.000001 3.962790 15.526612 -12.582884 4.715733 1.025015 19.904436 -5.606547 0.265183 -3.036143 -0.000003 0.000002 -4.969579 -0.000000 -0.000001 0.000001 3.940302 -9.925834 -2.002525 -5.671659 -9.471829 14.141564 2.175770 -2.278641 -8.459538 0.000008 0.000001 -7.510666 0.000001 0.000002 0.000001 
